<mxfile host="app.diagrams.net" agent="Mozilla/5.0 (Windows NT 10.0; Win64; x64; rv:129.0) Gecko/20100101 Firefox/129.0" version="24.7.6">
  <diagram name="Seite-1" id="6KNFjC9qvMSSYQJPCamY">
    <mxGraphModel dx="1858" dy="1086" grid="1" gridSize="10" guides="1" tooltips="1" connect="1" arrows="1" fold="1" page="1" pageScale="1" pageWidth="827" pageHeight="1169" math="0" shadow="0">
      <root>
        <mxCell id="0" />
        <mxCell id="1" parent="0" />
        <mxCell id="c_SHFbjMTj0HTDH2dX4E-4" style="edgeStyle=orthogonalEdgeStyle;rounded=0;orthogonalLoop=1;jettySize=auto;html=1;" edge="1" parent="1" source="c_SHFbjMTj0HTDH2dX4E-1" target="c_SHFbjMTj0HTDH2dX4E-3">
          <mxGeometry relative="1" as="geometry" />
        </mxCell>
        <mxCell id="c_SHFbjMTj0HTDH2dX4E-1" value="Start" style="verticalLabelPosition=bottom;verticalAlign=top;html=1;shape=mxgraph.flowchart.on-page_reference;" vertex="1" parent="1">
          <mxGeometry x="100" y="220" width="60" height="60" as="geometry" />
        </mxCell>
        <mxCell id="c_SHFbjMTj0HTDH2dX4E-6" value="" style="edgeStyle=orthogonalEdgeStyle;rounded=0;orthogonalLoop=1;jettySize=auto;html=1;" edge="1" parent="1" source="c_SHFbjMTj0HTDH2dX4E-3" target="c_SHFbjMTj0HTDH2dX4E-5">
          <mxGeometry relative="1" as="geometry" />
        </mxCell>
        <mxCell id="c_SHFbjMTj0HTDH2dX4E-3" value="Sortierregel an Probe hinterlegen" style="rounded=0;whiteSpace=wrap;html=1;" vertex="1" parent="1">
          <mxGeometry x="210" y="220" width="110" height="60" as="geometry" />
        </mxCell>
        <mxCell id="c_SHFbjMTj0HTDH2dX4E-5" value="Rack auf Lagerort &quot;aWB input&quot; umlagern" style="whiteSpace=wrap;html=1;rounded=0;" vertex="1" parent="1">
          <mxGeometry x="395" y="220" width="120" height="60" as="geometry" />
        </mxCell>
        <mxCell id="c_SHFbjMTj0HTDH2dX4E-7" value="ASKION aWB" style="swimlane;horizontal=0;whiteSpace=wrap;html=1;" vertex="1" parent="1">
          <mxGeometry x="50" y="370" width="1510" height="200" as="geometry" />
        </mxCell>
        <mxCell id="c_SHFbjMTj0HTDH2dX4E-16" style="edgeStyle=orthogonalEdgeStyle;rounded=0;orthogonalLoop=1;jettySize=auto;html=1;" edge="1" parent="c_SHFbjMTj0HTDH2dX4E-7" source="c_SHFbjMTj0HTDH2dX4E-12">
          <mxGeometry relative="1" as="geometry">
            <mxPoint x="530" y="140" as="targetPoint" />
          </mxGeometry>
        </mxCell>
        <mxCell id="c_SHFbjMTj0HTDH2dX4E-12" value="Sortierung starten" style="rounded=0;whiteSpace=wrap;html=1;" vertex="1" parent="c_SHFbjMTj0HTDH2dX4E-7">
          <mxGeometry x="327.5" y="110" width="120" height="60" as="geometry" />
        </mxCell>
        <mxCell id="c_SHFbjMTj0HTDH2dX4E-9" value="Informationen fÃ¼r Umsetzung Sortierung" style="shape=parallelogram;html=1;strokeWidth=2;perimeter=parallelogramPerimeter;whiteSpace=wrap;rounded=1;arcSize=12;size=0.23;" vertex="1" parent="c_SHFbjMTj0HTDH2dX4E-7">
          <mxGeometry x="310" y="20" width="155" height="60" as="geometry" />
        </mxCell>
        <mxCell id="c_SHFbjMTj0HTDH2dX4E-14" style="edgeStyle=orthogonalEdgeStyle;rounded=0;orthogonalLoop=1;jettySize=auto;html=1;" edge="1" parent="c_SHFbjMTj0HTDH2dX4E-7" source="c_SHFbjMTj0HTDH2dX4E-9" target="c_SHFbjMTj0HTDH2dX4E-12">
          <mxGeometry relative="1" as="geometry" />
        </mxCell>
        <mxCell id="c_SHFbjMTj0HTDH2dX4E-8" value="CentraXX" style="swimlane;horizontal=0;whiteSpace=wrap;html=1;" vertex="1" parent="1">
          <mxGeometry x="50" y="130" width="1510" height="240" as="geometry" />
        </mxCell>
        <mxCell id="c_SHFbjMTj0HTDH2dX4E-15" value="Ende" style="verticalLabelPosition=bottom;verticalAlign=top;html=1;shape=mxgraph.flowchart.on-page_reference;" vertex="1" parent="c_SHFbjMTj0HTDH2dX4E-8">
          <mxGeometry x="1191" y="70" width="60" height="60" as="geometry" />
        </mxCell>
        <mxCell id="c_SHFbjMTj0HTDH2dX4E-10" style="edgeStyle=orthogonalEdgeStyle;rounded=0;orthogonalLoop=1;jettySize=auto;html=1;entryX=0.59;entryY=0.05;entryDx=0;entryDy=0;entryPerimeter=0;" edge="1" parent="1" source="c_SHFbjMTj0HTDH2dX4E-5" target="c_SHFbjMTj0HTDH2dX4E-9">
          <mxGeometry relative="1" as="geometry" />
        </mxCell>
        <mxCell id="c_SHFbjMTj0HTDH2dX4E-11" value="getriggerter Export" style="edgeLabel;html=1;align=center;verticalAlign=middle;resizable=0;points=[];" vertex="1" connectable="0" parent="c_SHFbjMTj0HTDH2dX4E-10">
          <mxGeometry x="-0.234" y="3" relative="1" as="geometry">
            <mxPoint as="offset" />
          </mxGeometry>
        </mxCell>
      </root>
    </mxGraphModel>
  </diagram>
</mxfile>
